<?xml version="1.0" standalone="no"?>
<!DOCTYPE svg PUBLIC "-//W3C//DTD SVG 20010904//EN"
        "http://www.w3.org/TR/2001/REC-SVG-20010904/DTD/svg10.dtd">
<svg version="1.0" xmlns="http://www.w3.org/2000/svg"
     width="600.000000pt" height="600.000000pt"
     viewBox="0 0 600.000000 600.000000"
     preserveAspectRatio="xMidYMid meet">
  <metadata>
    Created by potrace 1.11, written by Peter Selinger 2001-2013
  </metadata>
  <g transform="translate(0.000000,600.000000) scale(0.100000,-0.100000)"
     fill="#000000" stroke="none">
    <path d="M2929 5915 c-26 -6 -78 -30 -115 -52 -69 -41 -289 -169 -354 -206
-28 -15 -374 -215 -527 -303 -18 -11 -124 -72 -235 -136 -906 -522 -1156 -669
-1184 -697 -63 -59 -78 -102 -82 -239 -4 -131 2 -152 42 -152 39 0 46 19 46
119 0 111 10 155 44 194 13 15 309 192 657 393 349 201 663 383 699 404 154
90 968 559 1000 575 41 21 117 23 156 3 16 -8 205 -116 419 -240 554 -320 775
-448 815 -470 19 -11 194 -112 388 -225 194 -112 367 -212 385 -222 18 -10 51
-29 73 -42 23 -13 91 -53 152 -88 154 -89 166 -107 170 -260 2 -64 8 -122 14
-128 14 -17 53 -16 67 1 8 9 11 54 10 130 -1 132 -20 187 -82 247 -19 19 -188
122 -374 228 -186 107 -374 216 -418 242 -44 26 -285 165 -535 310 -250 144
-572 330 -715 412 -143 83 -285 164 -315 179 -64 32 -134 41 -201 23z"/>
    <path d="M2685 4691 c-80 -14 -90 -18 -87 -36 5 -26 4 -26 40 -16 26 8 34 6
41 -7 8 -16 34 -151 34 -179 0 -14 43 -18 51 -5 3 4 1 26 -4 48 -5 21 -11 55
-14 74 -3 19 -8 45 -10 58 -5 24 2 29 44 35 16 3 26 11 28 25 4 26 1 26 -123
3z"/>
    <path d="M2998 4698 c-20 -7 -28 -17 -28 -34 0 -21 3 -23 19 -14 11 5 22 10
25 10 3 0 4 -44 3 -97 -2 -95 -1 -98 21 -101 12 -2 22 -2 23 0 0 2 3 58 6 126
l4 122 -23 -1 c-13 0 -35 -5 -50 -11z"/>
    <path d="M3201 4689 c-35 -14 -50 -39 -51 -80 0 -47 29 -74 80 -74 24 0 36 -4
33 -11 -6 -16 -49 -34 -83 -34 -24 0 -30 -4 -30 -21 0 -20 4 -21 55 -17 43 4
62 11 84 32 65 63 58 181 -12 206 -35 12 -44 12 -76 -1z m61 -41 c38 -30 25
-78 -21 -78 -41 0 -56 44 -25 74 19 19 25 20 46 4z"/>
    <path d="M3390 4641 c0 -14 10 -21 33 -26 86 -19 86 -17 -4 -107 -81 -82 -82
-82 -55 -91 23 -8 31 -3 73 40 73 74 133 143 133 152 0 8 -137 51 -164 51 -9
0 -16 -8 -16 -19z"/>
    <path d="M2470 4643 c-34 -12 -60 -47 -60 -79 0 -52 22 -66 120 -76 31 -4 39
-36 14 -55 -10 -7 -33 -13 -51 -13 -26 0 -33 -4 -33 -19 0 -28 9 -31 62 -20
57 13 91 47 90 91 -1 43 -32 68 -86 68 -50 0 -69 11 -64 36 2 13 16 22 46 28
30 7 42 15 42 28 0 14 -8 18 -32 17 -18 0 -40 -3 -48 -6z"/>
    <path d="M2248 4548 c-38 -17 -68 -34 -68 -39 0 -7 57 -128 93 -196 l17 -33
75 37 c41 21 75 40 75 43 0 3 -5 12 -10 20 -8 13 -15 12 -52 -8 -55 -28 -66
-28 -78 4 -6 14 -10 27 -10 28 0 2 19 11 43 21 23 11 43 20 45 21 2 1 -1 11
-7 22 -11 20 -11 20 -52 0 -46 -22 -64 -19 -71 10 -5 16 4 24 44 43 32 15 47
27 43 37 -3 7 -5 16 -5 18 0 8 -15 3 -82 -28z"/>
    <path d="M3622 4562 c-45 -22 -86 -105 -78 -158 6 -35 36 -73 60 -75 6 0 18
-2 28 -4 9 -2 30 5 47 16 69 42 95 172 41 210 -38 26 -62 29 -98 11z m79 -58
c5 -15 0 -38 -16 -72 -28 -59 -53 -78 -81 -58 -17 13 -18 18 -6 63 22 81 83
121 103 67z"/>
    <path d="M525 3970 c-136 -36 -226 -89 -315 -187 -50 -54 -104 -150 -116 -204
-11 -51 -13 -136 -4 -191 19 -126 114 -253 227 -306 50 -23 70 -27 148 -26 79
0 98 4 155 31 84 39 107 64 92 98 -18 40 -38 40 -114 1 -58 -30 -80 -36 -132
-36 -106 1 -198 61 -249 162 -104 207 10 440 263 541 119 47 254 53 411 18
109 -25 474 -156 506 -183 22 -18 14 -47 -31 -111 -24 -34 -63 -96 -86 -137
-23 -41 -52 -91 -63 -110 -11 -19 -32 -57 -47 -85 -85 -155 -282 -499 -299
-524 -29 -41 -28 -79 4 -91 14 -5 31 -7 39 -4 14 5 49 54 86 119 11 19 30 52
41 73 12 20 35 62 52 92 16 30 33 60 37 65 7 9 81 140 180 320 131 236 203
328 273 345 97 24 116 31 141 56 28 28 34 62 14 82 -18 18 -45 14 -84 -12 -55
-37 -101 -27 -418 94 -259 99 -349 121 -511 125 -104 3 -144 0 -200 -15z"/>
    <path d="M5403 3744 c-6 -3 -53 -79 -104 -170 -51 -91 -102 -170 -113 -176
-10 -6 -57 -11 -103 -12 -71 -2 -88 -5 -99 -21 -32 -44 -4 -75 69 -75 29 0 58
-4 65 -8 9 -6 -17 -60 -95 -200 -60 -106 -125 -216 -146 -245 -68 -91 -153
-142 -192 -113 -36 26 15 147 186 448 43 77 79 149 79 162 0 51 -57 63 -88 19
-16 -23 -95 -164 -205 -363 -117 -213 -221 -304 -304 -267 -27 12 -45 61 -37
102 3 17 15 50 27 75 29 62 207 383 218 394 13 14 11 60 -3 74 -17 17 -53 15
-70 -5 -8 -10 -63 -106 -123 -213 -166 -298 -228 -385 -304 -423 -30 -15 -71
-13 -82 5 -12 18 17 130 41 163 20 26 112 216 129 266 32 94 14 176 -44 203
-42 20 -77 20 -143 -3 -51 -17 -53 -17 -74 0 -11 11 -29 19 -38 19 -15 0 -50
-29 -50 -42 0 -3 -54 -102 -121 -219 -157 -277 -205 -341 -301 -406 -50 -34
-144 -74 -152 -65 -3 3 5 24 18 46 13 23 32 57 43 76 11 19 79 141 151 271 73
130 132 243 132 251 0 17 -31 48 -47 48 -6 0 -22 -9 -35 -20 l-25 -19 -24 26
c-56 61 -144 69 -235 23 -112 -57 -199 -160 -309 -365 -45 -83 -112 -179 -151
-217 -30 -28 -89 -56 -111 -52 -7 1 -18 2 -24 3 -8 1 -10 17 -6 51 6 52 58
162 161 344 31 54 56 100 56 102 0 2 14 26 30 53 22 36 29 56 24 75 -7 27 -33
41 -62 32 -11 -4 -61 -84 -122 -194 -57 -103 -112 -202 -123 -221 -61 -111
-175 -239 -216 -242 -86 -7 -106 10 -105 89 1 62 1 64 171 365 62 112 81 155
77 173 -7 25 -34 39 -62 30 -17 -6 -187 -299 -256 -441 -54 -112 -37 -232 40
-284 67 -46 166 -40 240 16 38 29 39 29 71 -3 53 -53 125 -60 209 -19 29 14
71 46 93 71 38 43 40 44 47 22 21 -68 96 -122 169 -121 38 1 39 1 10 -8 -16
-4 -64 -15 -105 -24 -173 -36 -276 -149 -241 -266 16 -52 48 -71 122 -74 54
-3 64 0 101 29 36 27 99 99 188 213 21 27 40 37 104 53 43 12 106 35 140 53
41 21 76 31 106 32 34 0 47 5 55 20 34 66 214 379 243 424 75 112 204 211 276
211 28 0 29 -1 22 -46 -5 -37 -97 -241 -126 -279 -4 -5 -19 -41 -34 -78 -61
-153 -19 -258 104 -259 60 0 120 27 173 78 21 20 39 35 41 33 1 -2 13 -19 25
-37 30 -42 89 -72 145 -72 53 0 87 12 139 47 l38 26 27 -25 c40 -37 65 -48
115 -48 55 0 105 20 152 61 21 19 35 26 35 18 1 -41 65 -82 126 -81 85 2 156
48 239 154 l53 68 -5 -40 c-7 -51 1 -82 33 -120 39 -46 86 -62 179 -62 120 0
248 51 335 133 55 52 143 200 138 233 -3 22 -43 47 -63 39 -7 -2 -33 -39 -58
-81 -46 -80 -119 -162 -143 -162 -19 0 -22 10 -28 105 -3 44 -8 93 -11 109
-13 62 -13 153 0 191 9 25 33 57 66 86 45 40 51 50 45 73 -9 36 -45 42 -120
22 -153 -43 -290 -172 -401 -381 -99 -186 -204 -286 -279 -267 -32 9 -15 83
53 216 106 213 180 336 207 347 14 5 61 9 104 9 101 0 133 25 96 75 -10 15
-28 20 -67 21 -84 3 -81 2 -73 27 4 12 39 78 77 147 39 68 70 133 70 143 -3
37 -34 55 -70 41z m-2055 -468 c46 -16 29 -114 -50 -270 -82 -163 -172 -275
-233 -290 -33 -8 -71 8 -91 39 -66 101 116 435 279 511 50 23 56 23 95 10z
m2243 -113 c-9 -50 -4 -139 14 -223 3 -14 6 -50 7 -81 2 -69 -24 -112 -80
-130 -81 -27 -127 1 -123 76 2 39 -1 46 -22 56 -18 8 -30 8 -45 0 -15 -8 -6
14 35 87 31 53 72 117 91 142 42 55 113 121 122 115 4 -3 4 -22 1 -42z m-2571
-670 c0 -11 -134 -134 -163 -150 -36 -18 -57 -11 -57 20 0 50 58 97 150 123
53 15 70 16 70 7z"/>
    <path d="M2016 2814 c-20 -20 -20 -22 5 -96 30 -91 15 -159 -53 -231 -127
-133 -347 -174 -613 -112 -118 27 -235 71 -505 190 -250 110 -354 143 -480
149 -223 12 -380 -101 -368 -265 6 -78 42 -130 117 -166 52 -26 65 -28 176
-28 109 1 127 4 201 32 82 31 152 71 238 137 30 23 59 36 77 36 17 0 73 -18
125 -41 182 -77 323 -126 417 -145 253 -50 453 -24 607 80 139 94 201 248 155
388 -27 83 -62 109 -99 72z m-1590 -204 c65 -11 231 -63 246 -78 16 -16 -2
-37 -65 -80 -145 -98 -329 -133 -440 -84 -148 66 -49 241 142 250 30 1 82 -3
117 -8z"/>
    <path d="M442 1858 c-8 -8 -12 -51 -12 -127 0 -101 3 -123 24 -167 21 -46 99
-134 117 -134 4 0 43 -21 86 -46 43 -26 94 -56 113 -67 19 -10 181 -104 360
-207 179 -103 342 -197 362 -208 20 -12 55 -32 77 -46 22 -15 43 -26 45 -26 3
0 38 -20 78 -44 40 -23 165 -96 278 -161 113 -65 241 -139 285 -165 216 -127
627 -361 649 -370 43 -16 117 -19 165 -6 25 7 134 63 241 125 107 63 213 124
235 136 22 13 283 163 580 335 297 171 717 414 933 538 217 125 409 242 428
260 64 62 78 103 82 240 4 131 -2 152 -42 152 -39 0 -46 -18 -46 -126 0 -154
-18 -186 -151 -263 -46 -26 -183 -105 -304 -176 -121 -70 -238 -138 -260 -150
-22 -12 -152 -87 -290 -167 -137 -79 -414 -239 -615 -355 -201 -116 -459 -265
-574 -332 -115 -66 -223 -125 -240 -129 -40 -11 -92 -5 -131 15 -32 17 -961
551 -1055 608 -30 18 -75 44 -100 57 -25 14 -112 64 -193 112 -82 47 -153 86
-158 86 -5 0 -9 5 -9 10 0 6 -4 10 -9 10 -5 0 -105 56 -223 124 -117 68 -232
134 -254 147 -409 234 -387 213 -393 388 -1 64 -8 122 -13 129 -13 15 -50 16
-66 0z"/>
    <path d="M3934 1811 c-59 -36 -81 -93 -50 -133 18 -24 51 -27 108 -12 43 11
49 10 57 -5 13 -24 -4 -49 -45 -66 -36 -15 -39 -21 -25 -44 8 -12 15 -11 47 6
40 20 68 53 79 91 5 17 -1 30 -24 52 -31 31 -53 34 -113 11 -57 -21 -67 28
-12 61 22 13 33 26 30 35 -3 8 -6 17 -6 19 0 8 -16 3 -46 -15z"/>
    <path d="M1925 1754 c-55 -36 -100 -70 -100 -76 0 -26 32 -31 62 -10 l30 21
36 -26 35 -25 -13 -39 c-13 -36 -13 -40 8 -54 27 -19 25 -22 72 123 35 108 36
114 19 133 -9 10 -24 19 -33 18 -9 0 -61 -30 -116 -65z m95 -33 c-6 -23 -13
-41 -16 -41 -2 0 -16 7 -29 16 l-25 16 38 28 c20 15 38 26 40 25 2 -2 -2 -21
-8 -44z"/>
    <path d="M3733 1676 c-51 -28 -93 -53 -93 -56 0 -3 5 -12 10 -20 8 -13 14 -13
45 4 19 11 37 17 39 15 1 -2 24 -43 50 -91 26 -49 51 -88 55 -88 4 0 15 6 24
13 15 11 12 20 -34 102 -55 98 -55 92 4 130 13 8 14 13 4 26 -11 14 -22 10
-104 -35z"/>
    <path d="M2169 1698 c-65 -120 -78 -153 -74 -175 14 -82 105 -124 173 -82 19
12 102 151 102 170 0 5 -9 13 -19 19 -18 9 -24 3 -57 -57 -49 -89 -62 -103
-94 -103 -64 0 -67 51 -12 153 l40 75 -24 11 c-20 9 -25 7 -35 -11z"/>
    <path d="M2386 1584 c-4 -11 4 -20 33 -31 l38 -15 -33 -95 c-19 -52 -34 -99
-34 -103 0 -4 11 -10 24 -12 22 -4 26 2 52 80 37 107 44 118 72 103 30 -16 50
-14 54 7 3 13 -15 24 -85 50 -102 37 -113 38 -121 16z"/>
    <path d="M3550 1591 c-38 -12 -90 -40 -90 -50 0 -5 18 -54 40 -110 22 -55 40
-105 40 -110 0 -10 38 -3 45 9 3 4 -2 27 -10 51 -12 34 -13 44 -3 51 25 15 47
7 74 -27 26 -34 47 -42 71 -27 9 6 0 22 -31 58 -34 38 -42 54 -35 67 11 19 2
62 -16 77 -18 15 -55 20 -85 11z m56 -63 c5 -16 1 -27 -16 -40 -32 -26 -46
-23 -60 13 -15 36 -4 49 42 49 19 0 29 -6 34 -22z"/>
    <path d="M2660 1509 c-72 -29 -107 -110 -77 -181 19 -45 54 -69 110 -75 107
-12 182 100 132 197 -26 50 -110 80 -165 59z m114 -78 c16 -28 17 -38 7 -71
-14 -48 -34 -64 -77 -64 -46 0 -77 32 -77 78 0 96 101 135 147 57z"/>
    <path d="M3273 1502 c-7 -7 -13 -25 -14 -40 0 -15 -2 -36 -4 -47 -2 -11 -7
-42 -10 -70 -3 -27 -8 -63 -11 -78 -6 -27 -4 -28 17 -22 30 9 39 23 39 57 0
23 5 27 42 33 38 7 44 5 67 -24 25 -30 54 -40 65 -22 3 5 -24 59 -62 119 -57
95 -71 111 -91 109 -13 -1 -30 -8 -38 -15z m69 -124 c-35 -14 -42 -8 -42 30 0
54 10 58 36 14 21 -34 21 -38 6 -44z"/>
    <path d="M2998 1484 c-13 -4 -16 -15 -13 -52 2 -26 4 -82 4 -124 l1 -78 28 0
c28 0 29 1 24 48 l-4 48 31 -2 c48 -3 95 34 99 77 5 57 -22 82 -94 85 -32 2
-67 0 -76 -2z m103 -44 c38 -21 15 -71 -37 -77 -24 -4 -26 1 -26 52 0 8 0 20
1 25 1 13 37 13 62 0z"/>
  </g>
</svg>
