<svg id="Layer_2" data-name="Layer 2" xmlns="http://www.w3.org/2000/svg"
     viewBox="0 0 1000 1000">
  <defs>
    <style>
      .cls-1,.cls-2{fill:none;}.cls-2{stroke:#000;stroke-linecap:round;stroke-miterlimit:10;stroke-width:9px;}
    </style>
  </defs>
  <title>Artboard 2</title>
  <line class="cls-1" x1="752.59" y1="617.28" x2="752.59" y2="382.72"/>
  <path d="M408.91,519.77c7.85,14.34,3.88,29.7-6.89,39.94S374.14,576,354.74,575c-24.23-1.13-46.38-10.62-66.55-19.64-6.42-2.88-9.41-2.53-14.67,1.76-13.35,11.12-28.16,17.34-43.39,17.88-8.84.31-15.83-1.4-21-4.74a19.69,19.69,0,0,1-9-13.68c-1.47-10.55,5.63-21.44,17.62-25.55,20.87-7.18,42.67,1.75,65.38,11.82s46.72,21.6,72,22.78c17.19.8,31.93-4.73,40.38-12.76s11.12-17.69,5.13-28.64a4.69,4.69,0,1,1,8.23-4.5ZM270.39,401c16.45.18,32.78,5.3,47.2,10.72,12.81,4.81,24.38,9.91,33.19,12.33,4.41,1.2,8.09,1.69,10.63,1.43s3.8-.92,5-2.57A4.69,4.69,0,1,1,374,428.5a16.23,16.23,0,0,1-10.85,6.25h-.07c-5.33.71-8.08,1.4-12,4.95s-8.83,10.46-16,23.26h0l-35.89,63.85-.1.17q-2.76,4.47-5.69,8.56a4.69,4.69,0,1,1-7.63-5.46q2.73-3.8,5.31-8l35.83-63.73h0c4.92-8.74,8.85-15,12.52-19.71,3.81-5.07,2.06-7.61-2.29-9.24-7.1-2.64-14.76-5.86-22.82-8.88-25-9.39-52.74-16.7-76.46-1-22.49,14.88-23.84,35.76-16,50.18,3.9,7.21,10.18,12.63,17.49,14.74s15.78,1.17,25-5.22a4.69,4.69,0,1,1,5.33,7.72c-11.17,7.73-22.93,9.41-32.95,6.51s-18.18-10.1-23.14-19.29c-9.94-18.37-6.74-45.35,19.11-62.46,12.09-8,25-10.84,37.74-10.69ZM220.86,539.94c-8.27,2.84-12.14,10-11.38,15.38a9.74,9.74,0,0,0,4.79,7.11c3.07,2,8.08,3.49,15.53,3.23,12.2-.43,24.3-5.1,35.71-14,4.37-3.44,3.1-4.72-1-6.4-11-4.3-21.28-7.23-30.71-7.3A38.61,38.61,0,0,0,220.86,539.94Z"/>
  <path d="M483,462.09a4.69,4.69,0,0,1,4,7.07l-.77,1.36L471,497.83c-1.14,2.05-2.25,4.1-3.32,6.13-.05.11-.1.22-.16.33l-.39.72c-1.21,2.33-2.37,4.61-3.45,6.81-2.35,4.77-4.16,10.75-3.94,13.83.1,1.54.43,2,.86,2.35s1.67.91,4.74.58c2.51-.27,6.27-2.2,10.73-6.89s9.5-12,14.82-21.84a4.69,4.69,0,1,1,8.26,4.44c-5.58,10.37-11,18.25-16.28,23.86s-10.71,9.13-16.53,9.75c-4.52.49-8.5-.17-11.48-2.48-3.89-3.1-3.65-6.45-8-3.18-3.92,3.21-7.92,5.21-12.15,5.66-9.12,1-16.25-3.74-18.85-10.16s-1.75-13.82,1.34-20.08c2.24-4.53,4.78-9.48,7.55-14.42l15.58-27.79,0-.05.52-.9a4.69,4.69,0,1,1,8.12,4.68l-.5.88L432.9,497.83c-2.66,4.75-5.13,9.56-7.32,14-2,4.06-2.34,9.24-1.06,12.4s3.1,5,9.15,4.36c2.51-.27,6.28-2.21,10.73-6.89s9.23-11.56,14.39-21c1.26-2.44,2.6-4.92,4-7.4l15.32-27.34s0,0,0,0l.79-1.37a4.66,4.66,0,0,1,4.12-2.42Z"/>
  <path d="M514.67,547.59c-6,7.3-20.39,27.56-26.58,27.74-2.49.08-10.93,1-14.34-2.33s-4.29-8.52-2.94-13.3,4.82-9.42,10.37-13c7.18-4.65,15.84-5.7,24.9-7.12.94-.15,2.51-.42,2.82-1.1.34-.9-.72-.59-2.32-.36a17.1,17.1,0,0,1-7.6-.72l-.05,0-.05,0c-8.11-2.88-12.31-10.5-12.54-18.36s2.58-16.39,7.16-24.54c4-7.11,10.08-16.05,17.51-22.87a39,39,0,0,1,12.29-8,22.58,22.58,0,0,1,7.11-1.51c.31,0,.62,0,.93,0h0a19.12,19.12,0,0,1,6.48,1.14,14.15,14.15,0,0,1,7.11,5.64c1.4,2.1,2.35,1.14,3.14,0a4.69,4.69,0,1,1,8.14,4.66c-13.34,23.28-24.31,43.5-33.42,59.6-1.78,3.15-.38,3.08,1.92,2.33a57.33,57.33,0,0,0,15.13-7.61c7.22-5.14,15.17-15.55,21.61-27.84a4.69,4.69,0,1,1,8.31,4.36c-6.87,13.11-15.17,24.49-24.48,31.12-11.67,8.3-24,11.1-34.53,12.91s-19.36,2.94-24.46,6.24c-4,2.57-5.83,5.48-6.45,7.69s-.08,3.52.5,4.09,1.63,1.21,4.64.15,13.15-10.52,18.38-16.93m27.9-78.2h-.49a13.29,13.29,0,0,0-4.13.94,30.9,30.9,0,0,0-9.29,6.18c-6.25,5.74-12,14.1-15.67,20.56-4,7.08-6.12,14.38-6,19.66s1.65,8.12,6.25,9.78a7.29,7.29,0,0,0,3.38.32,10.54,10.54,0,0,0,3.52-1.19,25.46,25.46,0,0,0,6.4-5.15c5.51-5.84,10.73-15,14.56-22.59,3.64-7.26,6.77-14.65,7.63-19.88a11.46,11.46,0,0,0-.2-5.69c-.44-1.12-.89-1.7-2.65-2.34a9.85,9.85,0,0,0-3.35-.61Z"/>
  <path d="M604.62,462.24a12.72,12.72,0,0,1,6.07,1.42c3.86,2,6,6.64,5.88,11.45s-1.85,10.31-5.29,17.16h0c-.75,1.53-1.55,3.11-2.37,4.71a4.32,4.32,0,0,1-.38.85c-.27.48-.53,1-.79,1.44-1,1.9-2,3.84-3.1,5.78-1.21,2.31-2.36,4.58-3.43,6.77-2.36,4.77-4.16,10.75-4,13.83.11,1.54.43,2,.86,2.35s1.68.91,4.74.58c2.52-.27,6.28-2.21,10.73-6.89s9.51-12,14.82-21.84a4.69,4.69,0,1,1,8.26,4.44c-5.57,10.37-10.95,18.25-16.28,23.86s-10.71,9.13-16.52,9.75c-4.52.49-8.51-.18-11.49-2.48a12.49,12.49,0,0,1-4.48-9.12c-.45-6.5,2.15-13.08,4.9-18.64.75-1.53,1.55-3.12,2.38-4.73a4.32,4.32,0,0,1,.38-.85c.27-.47.52-.95.78-1.42,1-1.91,2-3.85,3.12-5.8,1.2-2.31,2.35-4.59,3.43-6.77v0c3.06-6.12,4.23-10.64,4.29-13.19s-.33-2.63-.86-2.91-2.45-.57-5.37.32a36.41,36.41,0,0,0-10.38,5.6,67.57,67.57,0,0,0-16.82,19.34l-21.64,38.51a4.69,4.69,0,1,1-8.18-4.6L563.8,495.8l.09-.18c.56-1.05,1.14-2.06,1.74-3.07l11-19.56,4.46-8.22a4.69,4.69,0,0,1,8-.47c1.18,2.05,2.33,1.73,4.38.87a33.91,33.91,0,0,1,4.75-1.85,21.9,21.9,0,0,1,6.39-1.08Z"/>
  <path d="M690.47,462.09a4.69,4.69,0,0,1,4,7.07l-.77,1.36-15.31,27.31c-1.15,2.05-2.25,4.1-3.32,6.13-.05.11-.11.22-.17.33l-.39.72c-1.21,2.33-2.36,4.61-3.45,6.81-2.35,4.77-4.16,10.75-3.94,13.83.1,1.54.43,2,.86,2.35s1.68.91,4.74.58c2.51-.27,6.27-2.2,10.73-6.89s9.5-12,14.82-21.84a4.69,4.69,0,1,1,8.26,4.44c-5.57,10.37-10.95,18.25-16.28,23.86s-10.71,9.13-16.52,9.75c-4.53.49-8.51-.17-11.49-2.48-3.89-3.1-3.64-6.45-8-3.18-3.92,3.21-7.92,5.21-12.15,5.66-9.11,1-16.25-3.74-18.85-10.16s-1.75-13.82,1.34-20.08c2.24-4.53,4.79-9.48,7.55-14.42l15.58-27.79,0-.05.52-.9a4.69,4.69,0,1,1,8.13,4.68l-.51.88-15.56,27.77c-2.67,4.75-5.14,9.56-7.33,14-2,4.06-2.34,9.24-1.06,12.4s3.1,5,9.15,4.36c2.52-.27,6.28-2.21,10.73-6.89s9.23-11.56,14.39-21c1.27-2.44,2.6-4.92,4-7.4l15.32-27.34,0,0,.78-1.37a4.68,4.68,0,0,1,4.12-2.42Z"/>
  <path d="M742.6,425.29a4.69,4.69,0,0,1,4.08,7l-13.31,23.75c-3.12,5.56-1.14,5.63,3,5.42h6.56a4.69,4.69,0,1,1,0,9.38H731.8c-7.39,0-7.87,2.12-9.46,4.87L710,497.83c-2.66,4.75-5.13,9.56-7.32,14-2.35,4.77-4.15,10.75-3.94,13.83.1,1.54.42,2,.86,2.35s1.68.91,4.74.58c2.51-.27,6.27-2.2,10.73-6.89s9.5-12,14.82-21.84a4.69,4.69,0,1,1,8.26,4.44c-5.57,10.37-11,18.25-16.28,23.86s-10.71,9.13-16.52,9.75c-4.53.49-8.51-.18-11.49-2.48a12.42,12.42,0,0,1-4.48-9.12c-.45-6.5,2.15-13.08,4.89-18.64,2.24-4.53,4.78-9.48,7.55-14.42l9.9-17.65c1.91-3.42,1.08-4.63-2.89-4.71h-6.74a4.69,4.69,0,1,1,0-9.38h11c3.65,0,6.7-.24,9.83-5.87l15.63-27.89a4.68,4.68,0,0,1,4.1-2.45Z"/>
  <path d="M776.17,462.12a4.68,4.68,0,0,1,3.82,2l.1.14a1,1,0,0,1,.08.14,4.69,4.69,0,0,1-1.94,6.68c-6.69,4.23-8.91,8.59-9.77,13.75s.13,11.5,1.21,18c.74,4.47,1.56,9.06,1.34,13.67-.4,7.6,1.71,6.7,5.29,4.19a34,34,0,0,0,5.07-4.75c3.13-3.65,6.22-9.17,9.77-15.77a4.69,4.69,0,1,1,8.26,4.44c-3.56,6.63-6.78,12.64-10.92,17.45-8.38,9.73-20.41,14.78-31.16,16a42.58,42.58,0,0,1-10.76,0,4.78,4.78,0,0,1-1.11-.29,18.06,18.06,0,0,1-9.15-4c-4.29-3.64-6.48-10.2-4.37-17.05a4.69,4.69,0,1,1,9,2.77c-1.23,4-.28,5.63,1.47,7.13a10.32,10.32,0,0,0,7.63,1.88c7.7-2.22,9.91-5,11-8.56s.47-9.18-.59-15.58-2.44-13.6-1.2-21c.81-4.79,1-5.86-2.68-3a55.83,55.83,0,0,0-4.65,4.34c-6.74,7-11.91,15.64-15.46,22.26a4.69,4.69,0,1,1-8.27-4.44c3.73-6.95,9.24-16.28,17-24.32s17.62-14.7,30.06-15.92a4.75,4.75,0,0,1,1-.1Z"/>
  <path class="cls-2"
        d="M247.41,617.28v15a23.47,23.47,0,0,0,11.72,20.32l114.21,65.93L488.27,784.9a23.46,23.46,0,0,0,23.46,0l83.52-48.22,145.62-84.07a23.47,23.47,0,0,0,11.72-20.32v-15"/>
  <line class="cls-1" x1="247.41" y1="382.72" x2="247.41" y2="617.28"/>
  <path class="cls-2"
        d="M752.59,382.72v-15a23.47,23.47,0,0,0-11.72-20.32L595.25,263.32,511.73,215.1a23.46,23.46,0,0,0-23.46,0L373.34,281.46,259.13,347.39a23.47,23.47,0,0,0-11.72,20.32v15"/>
  <line class="cls-1" x1="752.59" y1="617.28" x2="752.59" y2="645.83"/>
  <path d="M438,354.93l-9.62,4.71,3.17,6.47,10.72-5.24,1.72,3.51-15.06,7.37L417.78,349l14.52-7.11,1.72,3.51-10.19,5,2.8,5.71,9.61-4.71Z"/>
  <path d="M445.75,358.05a14.29,14.29,0,0,0,7.07-.39c3-1,4.2-2.8,3.56-4.77-.58-1.77-2.15-2.43-5.89-2.35-4.84.13-8.26-1-9.48-4.75-1.3-4,1.28-8.12,6.74-9.9a15.32,15.32,0,0,1,6.91-.81l0,4a12.82,12.82,0,0,0-5.82.52c-3,1-3.75,2.86-3.3,4.27.6,1.83,2.42,2.21,6.25,2.19,5,0,8,1.26,9.18,5s-.49,8.21-7.33,10.44a16.34,16.34,0,0,1-7.77.64Z"/>
  <path d="M468.2,335.2l-8,1.42-.7-3.89,20.83-3.7.69,3.89L473,334.36l3.74,21-4.76.85Z"/>
  <path d="M502,333.42h-.08l-4.61,2.15-.77-3.61,6.2-2.81,4,.08-.46,24.39-4.65-.09Z"/>
  <path d="M515.35,350.73a14.4,14.4,0,0,0,2.7.38,10.11,10.11,0,0,0,5.8-1.11,8.47,8.47,0,0,0,4.06-4.72l-.09,0a7.49,7.49,0,0,1-6.1,1.4c-4.57-.68-7.48-4.3-6.82-8.74.71-4.76,5.24-8.15,10.69-7.34,6,.9,8.65,5.87,7.76,11.84-.77,5.16-3.05,8.54-6.05,10.48a14.66,14.66,0,0,1-9.54,1.95,18.61,18.61,0,0,1-3-.38Zm4.35-12.39a4.2,4.2,0,0,0,3.75,5,5.11,5.11,0,0,0,4.69-1.48,2.14,2.14,0,0,0,.45-1c.47-3-.33-6.26-3.75-6.77C522.21,333.69,520.1,335.62,519.7,338.34Z"/>
  <path d="M556.69,338.47l-.87,3-16.68,17.33-5-1.45,16.45-16.46,0-.07-12-3.51,1.09-3.75Z"/>
  <path d="M573.47,358.73c-3.07,6.88-8.06,10.47-14,7.8-5.43-2.42-6.41-8.37-3.39-15.29s8.41-10.17,14-7.69S576.46,352,573.47,358.73Zm-13-5.5c-2.45,5.48-2,9,.54,10.12,2.77,1.23,5.58-1.11,8-6.49s2.26-8.84-.56-10.1C566,345.69,563,347.55,560.48,353.23Z"/>
  <path d="M596.76,641.9a14.33,14.33,0,0,0,6.56-2.67c2.49-1.87,3.07-4,1.82-5.66-1.12-1.49-2.82-1.61-6.33-.32-4.53,1.69-8.14,1.71-10.5-1.42-2.53-3.36-1.43-8.09,3.16-11.54a15.52,15.52,0,0,1,6.28-3l1.32,3.8a12.77,12.77,0,0,0-5.35,2.37c-2.52,1.89-2.61,3.92-1.73,5.1,1.16,1.55,3,1.31,6.62.06,4.75-1.65,7.94-1.39,10.31,1.76s2.2,7.93-3.55,12.25a16.36,16.36,0,0,1-7.14,3.13Z"/>
  <path d="M573.14,637.31l-7.09,3.94-1.92-3.46,18.48-10.27,1.92,3.46-7.17,4,10.36,18.66L583.5,656Z"/>
  <path d="M545.78,645.17a50.88,50.88,0,0,1,7-3.28c3.71-1.41,6.35-1.7,8.52-1a6.3,6.3,0,0,1,3.92,3.94,6.66,6.66,0,0,1-2.26,7.58l0,.11c2,0,3.66,1.27,5.09,3.16a63.18,63.18,0,0,0,4.56,5.95l-4.62,1.76a31.5,31.5,0,0,1-3.82-4.87c-1.92-2.8-3.5-3.34-6.18-2.41l-2.62,1,3.69,9.68-4.48,1.71Zm8.43,8.68,3.08-1.17c3.15-1.2,4.53-3.41,3.64-5.74-1-2.65-3.53-3-6.44-1.84a15.49,15.49,0,0,0-3.06,1.45Z"/>
  <path d="M529.09,667.14l-.92,7.67-5,1,3.74-26.56L533.1,648l14.06,23L542,672l-4-6.67Zm7.27-5.16-3.52-5.78c-.84-1.4-1.58-2.8-2.26-4.06l-.08,0c-.11,1.43-.19,3-.38,4.56l-.92,6.72Z"/>
  <path d="M498.37,652.16a49.67,49.67,0,0,1,7.83-.89c3.6-.16,6.21.51,7.92,1.77a7.1,7.1,0,0,1,2.87,5.54,7.58,7.58,0,0,1-2,5.85c-1.89,2-4.85,3-8.5,3.14a12.18,12.18,0,0,1-2.65-.1l.42,9.44-4.78.21Zm5.31,11.56a10.44,10.44,0,0,0,2.7.14c3.73-.17,6-2,5.84-5s-2.47-4.14-5.83-4a17.38,17.38,0,0,0-3.09.37Z"/>
  <path d="M483.73,663.8c-1.44,8-8,12.1-15.69,10.72s-11.86-7.72-10.56-14.94c1.39-7.7,7.87-12.17,15.57-10.78C481,650.23,485,656.55,483.73,663.8Zm-21.19-3.45c-.89,5,1.45,9.61,6.41,10.51s8.76-2.51,9.72-7.8c.85-4.76-1.22-9.64-6.38-10.57S463.46,655.27,462.54,660.35Z"/>
  <path d="M446,646l-7.66-2.69,1.32-3.73,19.94,7-1.31,3.73-7.73-2.73-7.09,20.14-4.55-1.61Z"/>
  <path d="M422.46,630.54,415.75,643c-2.49,4.59-1.72,8,1.49,9.74,3.39,1.84,6.63.63,9.13-4l6.72-12.41,4.25,2.3-6.64,12.26c-3.91,7.22-9.57,8.25-15.45,5.06-5.49-3-7.71-7.95-3.66-15.44l6.63-12.23Z"/>
  <path d="M391.88,630.84l-6.43,4.29-4-3.12,22.62-14.44,4.95,3.87-8.29,25.61-4.19-3.27L399,636.4Zm8.65,2.17,2.1-6.44c.52-1.55,1.1-3,1.61-4.36l-.06,0c-1.16.84-2.41,1.81-3.71,2.67l-5.7,3.67Z"/>
</svg>